<?xml version="1.0" encoding="UTF-8"?>
<svg width="26px" height="21px" viewBox="0 0 26 21" version="1.1" xmlns="http://www.w3.org/2000/svg" xmlns:xlink="http://www.w3.org/1999/xlink">
    <!-- Generator: Sketch 49.3 (51167) - http://www.bohemiancoding.com/sketch -->
    <title>“</title>
    <desc>Created with Sketch.</desc>
    <defs></defs>
    <g id="Page-1" stroke="none" stroke-width="1" fill="none" fill-rule="evenodd">
        <g id="UT-StoriesLandingpage" transform="translate(-248.000000, -1259.000000)" fill="#FFFFFF">
            <g id="Group-10-Copy" transform="translate(215.000000, 923.000000)">
                <g id="Group-8" transform="translate(30.000000, 325.000000)">
                    <path d="M28.896,26.48 C28.896,27.9520074 28.4160048,29.1199957 27.456,29.984 C26.4959952,30.8480043 25.2800074,31.28 23.808,31.28 C22.0799914,31.28 20.6560056,30.7040058 19.536,29.552 C18.4159944,28.3999942 17.856,26.7040112 17.856,24.464 C17.856,22.3519894 18.159997,20.5440075 18.768,19.04 C19.376003,17.5359925 20.1119957,16.2560053 20.976,15.2 C21.8400043,14.1439947 22.7359954,13.2960032 23.664,12.656 C24.5920046,12.0159968 25.4079965,11.5680013 26.112,11.312 L28.512,14.672 C27.103993,15.3760035 25.9680043,16.3199941 25.104,17.504 C24.2399957,18.6880059 23.808,20.175991 23.808,21.968 C24.0640013,21.9039997 24.4159978,21.872 24.864,21.872 C26.1440064,21.872 27.1359965,22.3199955 27.84,23.216 C28.5440035,24.1120045 28.896,25.1999936 28.896,26.48 Z M14.88,26.48 C14.88,27.9520074 14.4000048,29.1199957 13.44,29.984 C12.4799952,30.8480043 11.2640074,31.28 9.792,31.28 C8.06399136,31.28 6.6400056,30.7040058 5.52,29.552 C4.3999944,28.3999942 3.84,26.7040112 3.84,24.464 C3.84,22.3519894 4.14399696,20.5440075 4.752,19.04 C5.36000304,17.5359925 6.09599568,16.2560053 6.96,15.2 C7.82400432,14.1439947 8.71999536,13.2960032 9.648,12.656 C10.5760046,12.0159968 11.3919965,11.5680013 12.096,11.312 L14.496,14.672 C13.087993,15.3760035 11.9520043,16.3199941 11.088,17.504 C10.2239957,18.6880059 9.792,20.175991 9.792,21.968 C10.0480013,21.9039997 10.3999978,21.872 10.848,21.872 C12.1280064,21.872 13.1199965,22.3199955 13.824,23.216 C14.5280035,24.1120045 14.88,25.1999936 14.88,26.48 Z" id="“"></path>
                </g>
            </g>
        </g>
    </g>
</svg>