<?xml version="1.0" encoding="UTF-8"?>
<svg width="24px" height="29px" viewBox="0 0 24 29" version="1.1" xmlns="http://www.w3.org/2000/svg" xmlns:xlink="http://www.w3.org/1999/xlink">
    <!-- Generator: Sketch 49.1 (51147) - http://www.bohemiancoding.com/sketch -->
    <title>apple-logo</title>
    <desc>Created with Sketch.</desc>
    <defs></defs>
    <g id="Page-1" stroke="none" stroke-width="1" fill="none" fill-rule="evenodd">
        <g id="UT-PodcastInnerpage01" transform="translate(-744.000000, -544.000000)" fill="#000000" fill-rule="nonzero">
            <g id="Group-15" transform="translate(744.000000, 544.000000)">
                <g id="apple-logo">
                    <path d="M21.2505263,18.7013534 C20.4604511,17.568 20.0656842,16.2911278 20.0656842,14.8718195 C20.0656842,13.5781053 20.4382556,12.3928421 21.1818346,11.316812 C21.5825564,10.7329323 22.2353083,10.0576241 23.1397895,9.29040602 C22.5445414,8.55789474 21.9492331,7.98544361 21.3535038,7.57317293 C20.2773534,6.82911278 19.0579248,6.45708271 17.6956391,6.45708271 C16.8829474,6.45708271 15.892391,6.65160902 14.7248722,7.04114286 C13.6028271,7.43037594 12.7841203,7.62520301 12.2691729,7.62520301 C11.8796992,7.62520301 11.0898647,7.45359398 9.89918797,7.10995489 C8.69708271,6.76643609 7.68378947,6.59482707 6.85948872,6.59482707 C4.89028571,6.59482707 3.26454135,7.41924812 1.98231579,9.06772932 C0.688601504,10.7393083 0.0416240602,12.8801805 0.0416240602,15.4905865 C0.0416240602,18.2612331 0.883308271,21.140391 2.56619549,24.1286015 C4.27193985,27.0938346 5.99506767,28.5766617 7.7352782,28.5766617 C8.31915789,28.5766617 9.07482707,28.3819549 10.0020451,27.9927218 C10.9295639,27.615218 11.7423759,27.4260451 12.4408421,27.4260451 C13.184782,27.4260451 14.0493233,27.609203 15.0338647,27.9753985 C16.075609,28.3414135 16.8772331,28.5246316 17.4381353,28.5246316 C18.9035188,28.5246316 20.3749173,27.4025865 21.851609,25.1586767 C22.8131128,23.7276391 23.5172932,22.2966015 23.9637895,20.8653835 C22.9448421,20.5560301 22.0405414,19.8347669 21.2505263,18.7013534 Z" id="Shape"></path>
                    <path d="M15.4113083,5.42670677 C16.1327519,4.70544361 16.6650827,3.91536842 17.0086617,3.05684211 C17.3405113,2.19819549 17.5061654,1.41954887 17.5061654,0.721082707 C17.5061654,0.675428571 17.5036992,0.618105263 17.4975038,0.549353383 C17.4923308,0.480661654 17.4892632,0.423578947 17.4892632,0.377744361 C17.4777143,0.343338346 17.4635188,0.280360902 17.4464361,0.18887218 C17.4293534,0.0973834586 17.4150977,0.034406015 17.4033684,-7.10542736e-15 C15.388391,0.469654135 13.9573534,1.31681203 13.1100752,2.54189474 C12.2516692,3.77840602 11.8049323,5.24944361 11.7705263,6.95530827 C12.5376241,6.88655639 13.1326917,6.78941353 13.5565113,6.6633985 C14.175218,6.45726316 14.7927218,6.04493233 15.4113083,5.42670677 Z" id="Shape"></path>
                </g>
            </g>
        </g>
    </g>
</svg>