<?xml version="1.0" encoding="UTF-8"?>
<svg width="26px" height="27px" viewBox="0 0 26 27" version="1.1" xmlns="http://www.w3.org/2000/svg" xmlns:xlink="http://www.w3.org/1999/xlink">
    <!-- Generator: Sketch 47.1 (45422) - http://www.bohemiancoding.com/sketch -->
    <title>Group 11</title>
    <desc>Created with Sketch.</desc>
    <defs></defs>
    <g id="Page-1" stroke="none" stroke-width="1" fill="none" fill-rule="evenodd">
        <g id="UT-PodcastPage" transform="translate(-1291.000000, -59.000000)" stroke="#332469">
            <g id="Group-8" transform="translate(204.000000, 1.000000)">
                <g id="Group" transform="translate(1053.000000, 59.000000)">
                    <g id="Group-11" transform="translate(34.809524, 0.000000)">
                        <circle id="Oval-3" fill="#332469" cx="12.2857143" cy="12.2857143" r="12.2857143"></circle>
                        <g id="003-facebook-logo" transform="translate(8.702381, 6.142857)" fill-rule="nonzero" fill="#FFFFFF">
                            <path d="M6.89679104,0.00266275897 L5.17783358,0 C3.24664383,0 1.99862418,1.23618585 1.99862418,3.14951132 L1.99862418,4.60164692 L0.270289339,4.60164692 C0.120940689,4.60164692 0,4.71854204 0,4.86273044 L0,6.96670944 C0,7.11089784 0.121078592,7.22765982 0.270289339,7.22765982 L1.99862418,7.22765982 L1.99862418,12.5366687 C1.99862418,12.6808571 2.11956487,12.797619 2.26891352,12.797619 L4.52389886,12.797619 C4.67324751,12.797619 4.7941882,12.6807239 4.7941882,12.5366687 L4.7941882,7.22765982 L6.81501472,7.22765982 C6.96436337,7.22765982 7.08530406,7.11089784 7.08530406,6.96670944 L7.08613148,4.86273044 C7.08613148,4.79349871 7.05758561,4.72719601 7.00697531,4.67820124 C6.95636501,4.62920648 6.88741365,4.60164692 6.81570423,4.60164692 L4.7941882,4.60164692 L4.7941882,3.37065345 C4.7941882,2.7789884 4.94022719,2.47862919 5.73854606,2.47862919 L6.89651523,2.47822978 C7.04572598,2.47822978 7.16666667,2.36133466 7.16666667,2.2172794 L7.16666667,0.263613139 C7.16666667,0.119691016 7.04586388,0.00292903487 6.89679104,0.00266275897 Z" id="Shape"></path>
                        </g>
                    </g>
                </g>
            </g>
        </g>
    </g>
</svg>