<?xml version="1.0" encoding="UTF-8"?>
<svg width="24px" height="18px" viewBox="0 0 24 18" version="1.1" xmlns="http://www.w3.org/2000/svg" xmlns:xlink="http://www.w3.org/1999/xlink">
    <!-- Generator: Sketch 47.1 (45422) - http://www.bohemiancoding.com/sketch -->
    <title>004-google-plus</title>
    <desc>Created with Sketch.</desc>
    <defs></defs>
    <g id="Page-1" stroke="none" stroke-width="1" fill="none" fill-rule="evenodd">
        <g id="UT-PodcastPage" transform="translate(-1345.000000, -3323.000000)" fill-rule="nonzero" fill="#332469">
            <g id="Group-9" transform="translate(231.000000, 3263.000000)">
                <g id="Group-7" transform="translate(1001.000000, 55.000000)">
                    <g id="004-google-plus" transform="translate(113.000000, 5.000000)">
                        <path d="M18.4132683,7.99795238 L9.82043902,7.99795238 L9.82043902,10.7940476 L15.0629268,10.7940476 C14.280878,13.2249048 11.9549268,14.9881905 9.20658537,14.9881905 C5.81673171,14.9881905 3.06887805,12.3055714 3.06887805,8.99657143 C3.06887805,5.68742857 5.81682927,3.005 9.20658537,3.005 C10.9136098,3.005 12.457561,3.68542857 13.5700976,4.78338095 L15.6492195,2.57728571 C13.9887317,0.988952381 11.7150732,0.00923809524 9.20658537,0.00923809524 C4.12195122,0.00919047619 0,4.033 0,8.99657143 C0,13.9601429 4.12195122,17.9840476 9.20663415,17.9840476 C13.6606341,17.9840476 17.5601951,14.8962381 18.4133171,10.7940952 L18.4133171,7.998 L18.4132683,7.99795238 L18.4132683,7.99795238 Z" id="Shape"></path>
                        <polygon id="Shape" points="23.9930732 7.99319048 22.2354634 7.99319048 22.2354634 6.27742857 20.7288293 6.27742857 20.7288293 7.99319048 18.9712195 7.99319048 18.9712195 9.46380952 20.7288293 9.46380952 20.7288293 11.179619 22.2354634 11.179619 22.2354634 9.46380952 23.9930732 9.46380952"></polygon>
                    </g>
                </g>
            </g>
        </g>
    </g>
</svg>