<?xml version="1.0" encoding="UTF-8"?>
<svg width="25px" height="25px" viewBox="0 0 25 25" version="1.1" xmlns="http://www.w3.org/2000/svg" xmlns:xlink="http://www.w3.org/1999/xlink">
    <!-- Generator: Sketch 47.1 (45422) - http://www.bohemiancoding.com/sketch -->
    <title>instagram-logo</title>
    <desc>Created with Sketch.</desc>
    <defs></defs>
    <g id="Page-1" stroke="none" stroke-width="1" fill="none" fill-rule="evenodd">
        <g id="UT-PodcastPage" transform="translate(-1257.000000, -60.000000)" fill-rule="nonzero" fill="#332469">
            <g id="Group-8" transform="translate(204.000000, 1.000000)">
                <g id="Group" transform="translate(1053.000000, 59.000000)">
                    <g id="instagram-logo">
                        <path d="M12.1997143,14.6426057 C13.5457371,14.6426057 14.6430971,13.5472114 14.6430971,12.2002057 C14.6430971,11.66848 14.4691314,11.1775429 14.1811543,10.7765371 C13.7373943,10.1612686 13.0159771,9.75780571 12.2011886,9.75780571 C11.3859086,9.75780571 10.6649829,10.1607771 10.22024,10.7760457 C9.93128,11.1770514 9.75878857,11.6679886 9.75829714,12.1997143 C9.75682286,13.54672 10.8532,14.6426057 12.1997143,14.6426057 Z" id="Shape"></path>
                        <polygon id="Shape" points="17.5331886 9.21232 17.5331886 7.16502857 17.5331886 6.86034286 17.2270286 6.86132571 15.18072 6.86771429 15.1885829 9.22018286"></polygon>
                        <path d="M12.2002057,0 C5.47304,0 0,5.47304 0,12.2002057 C0,18.92688 5.47304,24.4004114 12.2002057,24.4004114 C18.92688,24.4004114 24.4004114,18.92688 24.4004114,12.2002057 C24.4004114,5.47304 18.9278629,0 12.2002057,0 Z M19.1386857,10.7765371 L19.1386857,16.4574514 C19.1386857,17.9371429 17.9356686,19.1396686 16.45696,19.1396686 L7.94345143,19.1396686 C6.46425143,19.1396686 5.26172571,17.9371429 5.26172571,16.4574514 L5.26172571,10.7765371 L5.26172571,7.94394286 C5.26172571,6.46474286 6.46425143,5.26221714 7.94345143,5.26221714 L16.4564686,5.26221714 C17.9356686,5.26221714 19.1386857,6.46474286 19.1386857,7.94394286 L19.1386857,10.7765371 Z" id="Shape"></path>
                        <path d="M15.9955086,12.2002057 C15.9955086,14.2922171 14.2932,15.9955086 12.2002057,15.9955086 C10.1072114,15.9955086 8.40539429,14.2922171 8.40539429,12.2002057 C8.40539429,11.6969829 8.50564571,11.2158743 8.68452571,10.7765371 L6.61315429,10.7765371 L6.61315429,16.4574514 C6.61315429,17.1916457 7.20925714,17.7862743 7.94296,17.7862743 L16.4559771,17.7862743 C17.1886971,17.7862743 17.7857829,17.1916457 17.7857829,16.4574514 L17.7857829,10.7765371 L15.7134286,10.7765371 C15.8937829,11.2158743 15.9955086,11.6969829 15.9955086,12.2002057 Z" id="Shape"></path>
                    </g>
                </g>
            </g>
        </g>
    </g>
</svg>