<?xml version="1.0" encoding="UTF-8"?>
<svg width="24px" height="24px" viewBox="0 0 24 24" version="1.1" xmlns="http://www.w3.org/2000/svg" xmlns:xlink="http://www.w3.org/1999/xlink">
    <!-- Generator: Sketch 47.1 (45422) - http://www.bohemiancoding.com/sketch -->
    <title>001-instagram</title>
    <desc>Created with Sketch.</desc>
    <defs></defs>
    <g id="Page-1" stroke="none" stroke-width="1" fill="none" fill-rule="evenodd">
        <g id="UT-PodcastPage" transform="translate(-1305.000000, -3320.000000)" fill-rule="nonzero" fill="#332469">
            <g id="Group-9" transform="translate(231.000000, 3263.000000)">
                <g id="Group-7" transform="translate(1001.000000, 55.000000)">
                    <g id="001-instagram" transform="translate(73.000000, 2.000000)">
                        <path d="M17.5152656,0 L6.48473438,0 C2.9090625,0 0,2.9090625 0,6.48473438 L0,17.5152656 C0,21.0909375 2.9090625,24 6.48473438,24 L17.5152656,24 C21.0909375,24 24,21.0909375 24,17.5152656 L24,6.48473438 C24,2.9090625 21.0909375,0 17.5152656,0 Z M22.0610625,17.5152656 C22.0610625,20.0218125 20.0218594,22.0610625 17.5152656,22.0610625 L6.48473437,22.0610625 C3.9781875,22.0610625 1.9389375,20.0218594 1.9389375,17.5152656 L1.9389375,6.48473438 C1.9389375,3.9781875 3.97814062,1.9389375 6.48473437,1.9389375 L17.5152656,1.9389375 C20.0218125,1.9389375 22.0610625,3.97814063 22.0610625,6.48473438 L22.0610625,17.5152656 L22.0610625,17.5152656 Z" id="Shape"></path>
                        <path d="M17.3712188,11.1628594 C17.2005937,10.0122187 16.6756406,8.96934375 15.853125,8.14682812 C15.0306094,7.32435937 13.9877344,6.79935937 12.8371406,6.62878125 C12.3132656,6.55110937 11.782125,6.55110937 11.2582969,6.62878125 C9.83629687,6.83967187 8.58159375,7.59164062 7.72523437,8.74621875 C6.868875,9.90079687 6.51332813,11.3197969 6.72421875,12.7417031 C6.93510937,14.1636562 7.68707812,15.4183594 8.84165625,16.2747656 C9.77896875,16.9699687 10.890375,17.3350312 12.0363281,17.3350312 C12.3019687,17.3350312 12.5695312,17.3154375 12.8370937,17.2757344 C14.2590937,17.0648437 15.5137969,16.312875 16.3701562,15.1582969 C17.2265625,14.0037656 17.5821094,12.5848125 17.3712188,11.1628594 Z M12.5527031,15.35775 C11.6430937,15.4928438 10.7353594,15.2652656 9.99675,14.7174375 C9.25814062,14.1696094 8.77710937,13.3669219 8.64225,12.4573125 C8.50734375,11.5477031 8.73473437,10.6399687 9.2825625,9.90135937 C9.8304375,9.16275 10.6330781,8.68171875 11.5427344,8.5468125 C11.7102656,8.52196875 11.8789687,8.50954687 12.0476719,8.50954687 C12.216375,8.50954687 12.385125,8.52196875 12.5526562,8.54685938 C14.0634844,8.770875 15.229125,9.93646875 15.4531875,11.4473437 C15.731625,13.3250625 14.4305156,15.0793125 12.5527031,15.35775 Z" id="Shape"></path>
                        <path d="M18.7522969,5.24770312 C18.5717344,5.0671875 18.3218437,4.96373437 18.06675,4.96373437 C17.8116562,4.96373437 17.5617656,5.06714062 17.3812031,5.24770312 C17.2006875,5.42826562 17.0972344,5.67773437 17.0972344,5.93325 C17.0972344,6.18876562 17.2006875,6.43823437 17.3812031,6.61879687 C17.5617656,6.7993125 17.8116562,6.90276562 18.06675,6.90276562 C18.3218437,6.90276562 18.5717344,6.79935937 18.7522969,6.61879687 C18.9328125,6.43823437 19.0362656,6.18834375 19.0362656,5.93325 C19.0362656,5.67810937 18.9328125,5.42821875 18.7522969,5.24770312 Z" id="Shape"></path>
                    </g>
                </g>
            </g>
        </g>
    </g>
</svg>