<?xml version="1.0" encoding="UTF-8"?>
<svg width="25px" height="25px" viewBox="0 0 25 25" version="1.1" xmlns="http://www.w3.org/2000/svg" xmlns:xlink="http://www.w3.org/1999/xlink">
    <!-- Generator: Sketch 47.1 (45422) - http://www.bohemiancoding.com/sketch -->
    <title>linkedin-logo (1)</title>
    <desc>Created with Sketch.</desc>
    <defs></defs>
    <g id="Page-1" stroke="none" stroke-width="1" fill="none" fill-rule="evenodd">
        <g id="UT-PodcastPage" transform="translate(-1361.000000, -60.000000)">
            <g id="Group-8" transform="translate(204.000000, 1.000000)">
                <g id="Group" transform="translate(1053.000000, 59.000000)">
                    <g id="linkedin-logo-(1)" transform="translate(104.428571, 0.000000)">
                        <circle id="Oval-3-Copy-2" fill="#332469" cx="12.2857143" cy="12.2857143" r="12.2857143"></circle>
                        <path d="M16.8928571,12.5807823 L16.8928571,15.9873625 L14.9179374,15.9873625 L14.9179374,12.8089345 C14.9179374,12.0104875 14.6322865,11.4655786 13.917431,11.4655786 C13.3717295,11.4655786 13.0469822,11.8328072 12.9041139,12.1880392 C12.8520138,12.3150332 12.8386031,12.4917922 12.8386031,12.6695581 L12.8386031,15.9873625 L10.8630192,15.9873625 C10.8630192,15.9873625 10.8896263,10.6041487 10.8630192,10.0464076 L12.8384103,10.0464076 L12.8384103,10.8885142 C12.8344043,10.8948125 12.8291986,10.9016035 12.8254281,10.9077089 L12.8384103,10.8885142 C13.1008603,10.4842884 13.5695685,9.90683842 14.6186831,9.90683842 C15.9184651,9.906817 16.8928571,10.7559502 16.8928571,12.5807823 Z M8.7964744,7.18257253 C8.12062972,7.18257253 7.67857143,7.62587334 7.67857143,8.20882901 C7.67857143,8.77908099 8.10784034,9.23583528 8.77025296,9.23583528 L8.78344937,9.23583528 C9.47238334,9.23583528 9.90083819,8.77916668 9.90083819,8.20882901 C9.88785601,7.62587334 9.47238334,7.18257253 8.7964744,7.18257253 Z M7.79590379,15.9873625 L9.77073788,15.9873625 L9.77073788,10.0464076 L7.79590379,10.0464076 L7.79590379,15.9873625 Z" id="LinkedIn" fill="#FFFFFF" fill-rule="nonzero"></path>
                    </g>
                </g>
            </g>
        </g>
    </g>
</svg>