<?xml version="1.0" encoding="UTF-8"?>
<svg width="26px" height="25px" viewBox="0 0 26 25" version="1.1" xmlns="http://www.w3.org/2000/svg" xmlns:xlink="http://www.w3.org/1999/xlink">
    <!-- Generator: Sketch 47.1 (45422) - http://www.bohemiancoding.com/sketch -->
    <title>Group 12</title>
    <desc>Created with Sketch.</desc>
    <defs></defs>
    <g id="Page-1" stroke="none" stroke-width="1" fill="none" fill-rule="evenodd">
        <g id="UT-PodcastPage" transform="translate(-1326.000000, -60.000000)">
            <g id="Group-8" transform="translate(204.000000, 1.000000)">
                <g id="Group" transform="translate(1053.000000, 59.000000)">
                    <g id="Group-12" transform="translate(69.619048, 0.000000)">
                        <g id="002-twitter-logo-silhouette">
                            <circle id="Oval-3-Copy" fill="#332469" cx="12.2857143" cy="12.2857143" r="12.2857143"></circle>
                            <path d="M17.404782,10.1302421 C17.0656445,10.2841376 16.7017549,10.3885077 16.3194217,10.4351035 C16.7098099,10.1956951 17.0086423,9.8159598 17.1502746,9.36486612 C16.7840814,9.58657367 16.3798717,9.74756181 15.9491784,9.83483247 C15.6042895,9.45804219 15.1137184,9.22335198 14.5695928,9.22335198 C13.5256969,9.22335198 12.6792911,10.0901531 12.6792911,11.1586173 C12.6792911,11.3101537 12.6959882,11.4581591 12.7282383,11.5996887 C11.1575011,11.518894 9.76468126,10.7482139 8.83248611,9.57713734 C8.66953451,9.86254013 8.57683443,10.1950937 8.57683443,10.5500818 C8.57683443,11.2217112 8.91079261,11.814319 9.41748882,12.1610271 C9.10771065,12.1504189 8.81636108,12.0631483 8.56129659,11.9180878 L8.56129659,11.9422646 C8.56129659,12.8798227 9.21308792,13.6622982 10.0773351,13.8403858 C9.91899069,13.8840212 9.75201912,13.9081979 9.5792811,13.9081979 C9.45722172,13.9081979 9.33918232,13.8958166 9.22344648,13.8722258 C9.46411739,14.641734 10.1619802,15.2013146 10.9888132,15.2166564 C10.3422011,15.7355621 9.52688605,16.0439544 8.64133454,16.0439544 C8.48875656,16.0439544 8.3384671,16.0345181 8.19049627,16.0174186 C9.02711563,16.5675783 10.020348,16.888352 11.0878518,16.888352 C14.5650158,16.888352 16.4656912,13.938866 16.4656912,11.3809261 L16.4593526,11.1303237 C16.830725,10.85906 17.152006,10.5182419 17.404782,10.1302421 Z" id="Shape" fill="#FFFFFF" fill-rule="nonzero"></path>
                        </g>
                    </g>
                </g>
            </g>
        </g>
    </g>
</svg>